# xmcd
#
# Track frame offsets:
#	150
#	22887
#	41549
#	69365
#	89512
#	119222
#	136652
#	155094
#	186639
#	209895
#	223957
#	242294
#	266594
#	286863
#	318392
#	336566
#
# Disc length: 4788 seconds
#
# Revision: 1
# Processed by: cddbd v1.5.2PL0 Copyright (c) Steve Scherf et al.
# Submitted via: EasyCDDAExtractor 8.2.3.1
#
DISCID=0112b210
DTITLE=Various Artist - Akella Presents - Modern Electric Blues - vol.26  CD1
DYEAR=2011
DGENRE=Blues
TTITLE0=Damn Blues - DUFFY BISHOP
TTITLE1=I Know Why - BLUESBALL
TTITLE2=Free -  KAL DAVID
TTITLE3=Shootin' For My Heart - The TAINTS
TTITLE4=Blind Willie McTell - TIM BROOKS and The ALIEN  SHARECROPPERS
TTITLE5=Damn Your Eyes - DUKE DANGER
TTITLE6=Riders On The Storm - SIR OLIVER MALLY
TTITLE7=Fool - PAT McMANUS
TTITLE8=What's Wrong - LEW JETTON and 61 SOUTH
TTITLE9=Road Thru Hell - LOUIE JERGER and MARC TURNER
TTITLE10=One Way Ticket - SNOWY WHITE BLUES PROJECT
TTITLE11=Hello - WOLF MAIL
TTITLE12=Donna - The RADIO KINGS
TTITLE13=Nine Need Her So Bad - AYNSLEY LISTER
TTITLE14=Talking About Things - PETER GARSTENAUER
TTITLE15=Let me love - BIG GEORGE and The BUSINESS
EXTD=
EXTT0=
EXTT1=
EXTT2=
EXTT3=
EXTT4=
EXTT5=
EXTT6=
EXTT7=
EXTT8=
EXTT9=
EXTT10=
EXTT11=
EXTT12=
EXTT13=
EXTT14=
EXTT15=
PLAYORDER=
